<svg width="16" height="16" viewBox="0 0 16 16" fill="none" xmlns="http://www.w3.org/2000/svg">
<path d="M7.01828 15.2658C6.97108 15.2658 6.92433 15.2566 6.88072 15.2385C6.83711 15.2204 6.7975 15.1939 6.76416 15.1605C6.62381 15.0202 6.62381 14.7926 6.76416 14.6523L7.22566 14.1908C7.53397 13.8825 7.53397 13.3807 7.22566 13.0724C6.91731 12.7641 6.41566 12.7641 6.10734 13.0724L5.74363 13.4361C5.18269 13.9971 4.26997 13.9971 3.70906 13.4361C3.14813 12.8752 3.14813 11.9625 3.70906 11.4016L5.36244 9.74818C5.50278 9.60787 5.73031 9.60787 5.87069 9.74818C6.01106 9.88849 6.01103 10.1161 5.87069 10.2564L4.21731 11.9098C3.93663 12.1905 3.93663 12.6472 4.21731 12.9279C4.498 13.2086 4.95472 13.2086 5.23544 12.9279L5.59916 12.5642C5.88428 12.2791 6.26335 12.1221 6.66656 12.1221C7.06978 12.1221 7.44884 12.2791 7.73397 12.5642C8.3225 13.1528 8.3225 14.1104 7.73397 14.699L7.27247 15.1605C7.23912 15.1939 7.1995 15.2204 7.15588 15.2385C7.11226 15.2566 7.0655 15.2658 7.01828 15.2658Z" fill="#597B91"/>
<path d="M6.7096 10.7763L5.47528 11.1459C4.82375 11.3411 4.2165 10.7338 4.41163 10.0823L4.78128 8.84798C4.8977 8.45935 5.08956 8.09748 5.34591 7.78304L8.01997 4.50357C8.33978 4.11136 8.92853 4.08151 9.28638 4.43936L11.1182 6.2712C11.4761 6.62904 11.4462 7.21779 11.054 7.53761L7.77453 10.2117C7.4601 10.468 7.09822 10.6599 6.7096 10.7763Z" fill="#445056"/>
<path d="M11.899 6.55605C13.4993 6.55605 14.7965 5.25878 14.7965 3.65852C14.7965 2.05826 13.4993 0.760986 11.899 0.760986C10.2987 0.760986 9.00146 2.05826 9.00146 3.65852C9.00146 5.25878 10.2987 6.55605 11.899 6.55605Z" fill="#B9C5C6"/>
<path d="M13.5651 5.92291C11.4751 5.74866 9.80887 4.0825 9.63466 1.99247C9.61612 1.77026 9.69806 1.55125 9.85575 1.39357L10.0799 1.16944C10.2486 1.00072 10.5384 1.09629 10.572 1.33251C10.8407 3.2221 12.3355 4.71685 14.2251 4.9856C14.4613 5.01919 14.5569 5.309 14.3882 5.47772L14.164 5.70185C14.0063 5.8595 13.7873 5.94144 13.5651 5.92291Z" fill="#96A9B2"/>
<path d="M5.48869 6.04634C5.48869 6.0489 5.48837 6.0514 5.48831 6.05394C5.4884 6.059 5.48869 6.06403 5.48869 6.06912C5.48869 6.56822 5.08409 6.97284 4.58497 6.97284C4.08587 6.97284 3.68125 6.56825 3.68125 6.06912C3.68125 5.57003 4.08584 5.1654 4.58497 5.1654C4.7179 5.1654 4.844 5.19434 4.95765 5.24587V3.3404L2.42456 4.73884V7.85025C2.42456 7.86147 2.42362 7.87187 2.42228 7.88184C2.40559 8.36628 2.00787 8.75397 1.51937 8.75397C1.02028 8.75397 0.615654 8.34937 0.615654 7.85025C0.615654 7.35112 1.02025 6.94653 1.51937 6.94653C1.65287 6.94653 1.7795 6.97572 1.89353 7.02765V3.46009C1.89354 3.41262 1.90627 3.36602 1.93039 3.32513C1.95452 3.28425 1.98916 3.25058 2.03072 3.22762L5.09484 1.53603C5.13527 1.5137 5.18082 1.5023 5.227 1.50296C5.27318 1.50362 5.31839 1.51631 5.35817 1.53978C5.39794 1.56326 5.4309 1.5967 5.4538 1.63681C5.47669 1.67692 5.48873 1.72231 5.48872 1.7685V6.04634H5.48869ZM14.203 8.63937L12.9337 9.34006C12.8922 9.36301 12.8576 9.39669 12.8334 9.43757C12.8093 9.47845 12.7966 9.52506 12.7966 9.57253V13.1401C12.6791 13.0866 12.5515 13.0589 12.4224 13.059C11.9233 13.059 11.5187 13.4636 11.5187 13.9627C11.5187 14.4618 11.9233 14.8664 12.4224 14.8664C12.9109 14.8664 13.3086 14.4788 13.3253 13.9943C13.3267 13.9843 13.3276 13.974 13.3276 13.9627V10.9562C13.3276 10.9244 13.3361 10.8932 13.3523 10.8659C13.3684 10.8385 13.3916 10.816 13.4194 10.8006L14.3747 10.2732C14.4026 10.2578 14.4257 10.2353 14.4419 10.2079C14.458 10.1806 14.4666 10.1494 14.4666 10.1176V8.79494C14.4666 8.65965 14.3214 8.57397 14.203 8.63937Z" fill="#D100AE"/>
<path d="M7.87156 8.40472C7.77715 8.40484 7.68365 8.38631 7.59643 8.35018C7.50921 8.31406 7.42998 8.26105 7.36331 8.19422C7.08262 7.91353 7.08262 7.45844 7.36331 7.17775L8.18968 6.35137C8.4704 6.07072 8.9255 6.07069 9.20615 6.35137C9.48681 6.63206 9.48681 7.08715 9.20615 7.36784L8.37975 8.19422C8.31308 8.26105 8.23387 8.31405 8.14666 8.35017C8.05944 8.3863 7.96596 8.40483 7.87156 8.40472Z" fill="#597B91"/>
<path d="M12.0268 1.81262C12.5252 1.81262 12.9293 1.64473 12.9293 1.43762C12.9293 1.23052 12.5252 1.06262 12.0268 1.06262C11.5284 1.06262 11.1243 1.23052 11.1243 1.43762C11.1243 1.64473 11.5284 1.81262 12.0268 1.81262Z" fill="#DCE2E2"/>
</svg>
