<svg width="24" height="24" viewBox="0 0 24 24" fill="none" xmlns="http://www.w3.org/2000/svg">
<path d="M18.296 4.63699C17.4831 3.78974 16.5073 3.1156 15.4272 2.65507C14.3472 2.19455 13.1852 1.95715 12.011 1.95715C10.8369 1.95715 9.67483 2.19455 8.59477 2.65507C7.5147 3.1156 6.5389 3.78974 5.72601 4.63699C4.19601 6.63699 3.72601 9.63699 4.58601 12.717C5.46601 16.047 7.81601 18.457 9.70601 20.387L10.626 21.387C10.8047 21.5766 11.0187 21.7295 11.256 21.837C11.4937 21.9426 11.7509 21.9971 12.011 21.9971C12.2711 21.9971 12.5283 21.9426 12.766 21.837C12.9989 21.7313 13.2094 21.5819 13.386 21.397L14.316 20.397C16.206 18.467 18.556 16.057 19.436 12.727C20.246 9.63699 19.826 6.63699 18.296 4.63699ZM12.006 12.887C11.2595 12.8872 10.5327 12.6473 9.93292 12.2027C9.33317 11.7582 8.89228 11.1325 8.67535 10.4182C8.45842 9.70389 8.47695 8.93875 8.7282 8.23576C8.97946 7.53277 9.45012 6.92922 10.0707 6.51423C10.6912 6.09923 11.4288 5.8948 12.1745 5.93111C12.9201 5.96742 13.6343 6.24256 14.2116 6.71589C14.7889 7.18922 15.1987 7.83565 15.3805 8.55972C15.5622 9.28379 15.5063 10.0471 15.221 10.737C14.9575 11.3721 14.5111 11.9146 13.9387 12.2956C13.3663 12.6766 12.6936 12.879 12.006 12.877V12.887Z" fill="url(#paint0_linear_48_2)"/>
<defs>
<linearGradient id="paint0_linear_48_2" x1="11.9999" y1="1.95715" x2="11.9999" y2="21.9971" gradientUnits="userSpaceOnUse">
<stop stop-color="#C500A4"/>
<stop offset="0.52" stop-color="#7F006A"/>
<stop offset="1" stop-color="#5F004F"/>
</linearGradient>
</defs>
</svg>
